<?xml version="1.0" standalone="no"?>
<!DOCTYPE svg PUBLIC "-//W3C//DTD SVG 20010904//EN"
 "http://www.w3.org/TR/2001/REC-SVG-20010904/DTD/svg10.dtd">
<svg version="1.0" xmlns="http://www.w3.org/2000/svg"
 width="87.000000pt" height="87.000000pt" viewBox="0 0 87.000000 87.000000"
 preserveAspectRatio="xMidYMid meet">
<metadata>
Created by potrace 1.14, written by Peter Selinger 2001-2017
</metadata>
<g transform="translate(0.000000,87.000000) scale(0.100000,-0.100000)"
fill="#000000" stroke="none">
<path d="M351 859 c-134 -26 -266 -133 -315 -254 -26 -65 -34 -129 -17 -139 5
-3 12 11 16 31 29 158 150 287 309 329 112 30 245 11 338 -47 46 -30 115 -98
136 -135 8 -13 14 -16 22 -8 16 16 -60 115 -122 157 -29 19 -71 40 -93 46
-132 32 -190 37 -274 20z"/>
<path d="M375 641 c-78 -35 -142 -134 -133 -202 3 -26 4 -26 170 69 180 103
184 108 111 139 -44 18 -100 16 -148 -6z m123 -17 c12 -4 22 -9 22 -13 -1 -6
-233 -141 -244 -141 -11 0 24 74 47 99 43 46 118 70 175 55z"/>
<path d="M848 623 c-1 -5 -16 -16 -33 -25 -16 -10 -29 -22 -28 -27 2 -5 -5 -9
-15 -8 -14 1 -414 -230 -460 -266 -10 -8 -2 -18 35 -41 41 -27 56 -31 118 -31
60 0 81 5 149 38 43 20 79 37 80 37 2 0 24 -31 51 -70 47 -69 59 -79 69 -61 5
7 -77 137 -104 164 -4 5 -47 -10 -95 -34 -77 -38 -94 -43 -163 -44 -42 -1 -82
0 -89 2 -26 10 -2 36 83 89 49 31 100 67 114 79 29 26 116 85 125 85 3 0 3 -6
-2 -12 -4 -8 2 -7 17 3 14 9 58 35 98 58 39 24 72 47 72 52 0 11 -18 21 -22
12z"/>
<path d="M12 429 c-26 -49 19 -182 90 -262 18 -21 42 -40 53 -41 11 -2 19 -8
18 -14 -3 -15 43 -47 114 -79 51 -24 71 -27 168 -27 115 -1 169 12 223 55 27
21 47 25 36 8 -8 -13 20 0 83 40 44 27 60 51 21 30 -13 -7 -24 -12 -26 -11 -1
1 -29 -11 -61 -28 -81 -40 -193 -70 -266 -70 -216 1 -407 162 -433 365 -7 55
-8 57 -20 34z"/>
</g>
</svg>
