<?xml version="1.0" standalone="no"?>
<!DOCTYPE svg PUBLIC "-//W3C//DTD SVG 20010904//EN"
 "http://www.w3.org/TR/2001/REC-SVG-20010904/DTD/svg10.dtd">
<svg version="1.0" xmlns="http://www.w3.org/2000/svg"
 width="214.000000pt" height="145.000000pt" viewBox="0 0 214.000000 145.000000"
 preserveAspectRatio="xMidYMid meet">
<metadata>
Created by potrace 1.14, written by Peter Selinger 2001-2017
</metadata>
<g transform="translate(0.000000,145.000000) scale(0.100000,-0.100000)"
fill="#000000" stroke="none">
<path d="M910 1440 c-392 -39 -728 -226 -850 -473 -47 -95 -67 -207 -37 -207
9 0 19 5 22 10 4 6 11 8 16 4 13 -8 -3 -33 -32 -48 -22 -11 -24 -17 -20 -71 6
-114 55 -208 160 -311 66 -65 200 -157 219 -149 7 2 10 0 7 -5 -7 -11 153 -90
244 -120 231 -76 577 -90 873 -34 49 9 86 20 83 24 -3 5 5 6 17 2 16 -4 19 -2
13 8 -6 10 -2 11 17 7 36 -9 279 73 400 134 l41 21 -134 135 c-74 74 -155 152
-180 174 l-47 39 -123 -49 c-225 -90 -426 -126 -575 -103 -42 7 -81 9 -86 5
-7 -3 -8 -1 -4 5 4 7 3 12 -3 12 -5 0 -14 -7 -19 -15 -5 -10 -15 -13 -27 -9
-16 7 -16 8 6 16 l24 9 -25 14 -25 13 30 12 c122 45 402 166 398 172 -2 4 2 5
10 2 8 -3 21 1 28 8 8 7 20 13 27 14 29 2 33 5 26 16 -5 8 -2 9 9 5 22 -8 49
2 41 15 -4 6 1 8 12 4 11 -3 26 -1 34 4 8 5 11 10 5 10 -13 0 17 20 30 20 6 0
3 -5 -5 -11 -13 -10 -13 -10 0 -6 15 5 520 211 593 241 20 9 37 22 37 29 0 22
-147 174 -215 222 -129 92 -301 159 -490 190 -110 18 -409 27 -525 15z m499
-65 c117 -23 232 -60 324 -106 105 -52 158 -90 246 -174 l73 -70 -573 -235
c-316 -128 -614 -250 -663 -271 l-89 -37 54 -27 c95 -49 182 -77 264 -85 158
-16 370 20 563 96 l92 36 135 -126 c74 -69 139 -126 144 -126 5 0 11 5 13 11
2 6 15 9 28 7 l25 -4 -25 -11 c-14 -5 -47 -18 -75 -28 -27 -9 -108 -37 -179
-62 -208 -73 -326 -94 -563 -100 -220 -6 -307 2 -461 43 -395 103 -662 355
-662 625 0 60 27 155 63 224 83 155 287 305 512 374 216 67 541 86 754 46z"/>
<path d="M960 1084 c-161 -34 -331 -162 -364 -274 -16 -55 -22 -130 -9 -130 4
0 192 72 419 160 227 88 418 160 423 160 48 0 -85 70 -169 89 -63 15 -223 12
-300 -5z m285 -56 c34 -9 37 -12 20 -18 -11 -5 -144 -56 -295 -115 -151 -59
-278 -109 -282 -112 -19 -11 -5 29 25 73 98 147 333 223 532 172z"/>
</g>
</svg>
